Patient5_TMGait_0pt45_1_right_09_GRF.mot
version=1
nRows=32
nColumns=19
inDegrees=no
endheader
time	F1x	F1y	F1z	M1x	M1y	M1z	F2x	F2y	F2z	M2x	M2y	M2z	EC1x	EC1y	EC1z	EC2x	EC2y	EC2z
14.59	5.0185	863.2961	24.9642	-322.0594	-26.1767	888.9721	0.8725	0.64005	-1.1059	0.70802	0.17139	-0.77624	-0.0592	0.0182	-0.0073	-0.0462	0.0165	0.9585
14.6072	5.2568	860.8548	25.2314	-321.5172	-25.6048	883.2513	0.53167	0.59703	-0.69195	0.543	0.15646	-0.20678	-0.0592	0.0182	-0.0073	-0.0462	0.0165	0.9585
14.6244	6.0873	857.674	25.5378	-320.6836	-25.1021	875.9909	0.25675	0.56531	-0.3421	0.40049	0.13034	0.21142	-0.0592	0.0182	-0.0073	-0.0462	0.0165	0.9585
14.6416	7.3719	853.9555	25.8418	-319.6769	-24.7002	867.6703	0.065671	0.54348	-0.10626	0.29836	0.11353	0.47562	-0.0592	0.0182	-0.0073	-0.0462	0.0165	0.9585
14.6589	8.8933	850.1729	26.0534	-318.7413	-24.3366	859.0068	-0.04099	0.53065	0.02273	0.2387	0.10191	0.62147	-0.0592	0.0182	-0.0073	-0.0462	0.0165	0.9585
14.6761	10.5063	846.9834	26.0841	-318.1726	-23.9036	850.8126	-0.083565	0.52887	0.083293	0.21585	0.081466	0.68967	-0.0592	0.0182	-0.0073	-0.0462	0.0165	0.9585
14.6933	12.2253	844.957	25.9186	-318.1972	-23.3107	843.692	-0.086873	0.5441	0.10279	0.22194	0.055906	0.72419	-0.0592	0.0182	-0.0073	-0.0462	0.0165	0.9585
14.7105	14.1671	844.4269	25.6363	-318.901	-22.5248	837.9292	-0.076995	0.59071	0.10795	0.24933	0.027965	0.76922	-0.0592	0.0182	-0.0073	-0.0462	0.0165	0.9585
14.7277	16.5086	845.4638	25.4044	-320.2287	-21.5942	833.5377	-0.072914	0.6885	0.10887	0.29255	0.0067206	0.86748	-0.0592	0.0182	-0.0073	-0.0462	0.0165	0.9585
14.7449	19.4321	847.8747	25.4116	-322.0049	-20.6024	830.2687	-0.087909	0.81646	0.10186	0.34255	0.0045539	1.0108	-0.0592	0.0182	-0.0073	-0.0462	0.0165	0.9585
14.7621	23.0747	851.2324	25.7987	-323.9784	-19.6138	827.6608	-0.1211	0.91932	0.087962	0.384	0.022646	1.1311	-0.0592	0.0182	-0.0073	-0.0462	0.0165	0.9585
14.7794	27.4884	854.9846	26.6558	-325.8766	-18.6852	825.1514	-0.1727	0.91096	0.070048	0.38659	0.061002	1.1241	-0.0592	0.0182	-0.0073	-0.0462	0.0165	0.9585
14.7966	32.6021	858.6279	28.0222	-327.4748	-17.8778	822.2679	-0.237	0.67688	0.050128	0.3017	0.11547	0.85354	-0.0592	0.0182	-0.0073	-0.0462	0.0165	0.9585
14.8138	38.2513	861.7988	29.8723	-328.6292	-17.2237	818.6748	-0.29501	0.050316	0.02358	0.061082	0.17352	0.13482	-0.0592	0.0182	-0.0073	-0.0462	0.0165	0.9585
14.831	44.2469	864.2795	32.135	-329.2749	-16.7211	814.185	-0.31111	-1.1771	-0.019562	-0.41387	0.224	-1.2621	-0.0592	0.0182	-0.0073	-0.0462	0.0165	0.9585
14.8482	50.4504	866.0208	34.7159	-329.4272	-16.324	808.7721	-0.23723	-3.1553	-0.082584	-1.1775	0.24997	-3.4982	-0.0592	0.0182	-0.0073	-0.0462	0.0165	0.9585
14.8654	56.7841	867.135	37.5239	-329.1661	-15.9722	802.5652	-0.0079593	-5.8276	-0.14142	-2.2056	0.20314	-6.5038	-0.0592	0.0182	-0.0073	-0.0462	0.0165	0.9585
14.8826	63.2701	867.7403	40.5052	-328.5773	-15.6169	795.7085	0.45315	-8.7111	-0.15209	-3.3133	0.0097032	-9.7408	-0.0592	0.0182	-0.0073	-0.0462	0.0165	0.9585
14.8999	70.0046	867.7527	43.6129	-327.6756	-15.1972	788.185	1.2199	-10.613	-0.052536	-4.0444	-0.4214	-11.8824	-0.0592	0.0182	-0.0073	-0.0462	0.0165	0.9585
14.9171	77.1142	866.78	46.7174	-326.3675	-14.5736	779.7147	2.3028	-9.351	0.2509	-3.5647	-1.1858	-10.4771	-0.0592	0.0182	-0.0073	-0.0462	0.0165	0.9585
14.9343	84.6922	864.1917	49.5666	-324.4791	-13.5156	769.828	3.5674	-1.5729	0.87573	-0.59311	-2.3427	-1.7287	-0.0592	0.0182	-0.0073	-0.0462	0.0165	0.9585
14.9515	92.7135	859.2282	51.8063	-321.7924	-11.7443	757.9798	4.6323	17.054	1.9362	6.5292	-3.8474	19.3037	-0.0592	0.0182	-0.0073	-0.0462	0.0165	0.9585
14.9687	100.9611	850.9066	53.0158	-318.0092	-8.9981	743.4815	4.7438	50.9061	3.4429	19.4774	-5.4021	57.617	-0.0592	0.0182	-0.0073	-0.0462	0.0165	0.9585
14.9859	108.9049	837.856	52.7264	-312.6806	-5.1044	725.374	2.6552	102.2601	5.1982	39.1229	-6.302	115.8169	-0.0592	0.0182	-0.0073	-0.0462	0.0165	0.9585
15.0031	115.7295	818.1717	50.4798	-305.1459	-0.023561	702.2907	-2.9981	168.105	6.6676	64.2973	-5.4602	190.5825	-0.0592	0.0182	-0.0073	-0.0462	0.0165	0.9585
15.0204	120.449	789.4655	45.9523	-294.5282	6.1036	672.4728	-12.273	238.2732	6.8599	90.972	-1.8157	270.6267	-0.0592	0.0182	-0.0073	-0.0462	0.0165	0.9585
15.0376	122.167	749.2383	39.2184	-279.8493	12.8486	634.0097	-23.2543	298.3527	3.495	113.3377	6.2119	339.7592	-0.0592	0.0182	-0.0073	-0.0462	0.0165	0.9585
15.0548	120.3367	695.8084	30.9906	-260.3611	19.4122	585.5983	-33.9792	342.1237	-4.2358	128.8385	18.6699	390.7334	-0.0592	0.0182	-0.0073	-0.0462	0.0165	0.9585
15.072	114.8561	629.1159	22.5498	-235.873	24.7279	527.1976	-43.2184	375.1654	-14.2374	139.7763	32.9287	429.331	-0.0592	0.0182	-0.0073	-0.0462	0.0165	0.9585
15.0892	105.8392	551.011	15.0598	-206.9487	27.9002	460.3006	-50.2444	405.9921	-23.8273	149.7581	45.9237	464.5063	-0.0592	0.0182	-0.0073	-0.0462	0.0165	0.9585
15.1064	93.5354	465.1788	9.0336	-174.9329	28.5689	387.8731	-54.4453	442.0591	-31.5181	161.9203	55.8556	503.9976	-0.0592	0.0182	-0.0073	-0.0462	0.0165	0.9585
15.1236	78.4898	376.7412	4.4834	-141.7858	26.8742	314.0186	-55.3573	488.5215	-37.2339	178.3732	62.4399	553.0566	-0.0592	0.0182	-0.0073	-0.0462	0.0165	0.9585
